<svg xmlns="http://www.w3.org/2000/svg" version="1.1" xmlns:xlink="http://www.w3.org/1999/xlink" xmlns:svgjs="http://svgjs.dev/svgjs" width="1500" height="1500" viewBox="0 0 1500 1500"><rect width="1500" height="1500" fill="#000000"></rect><g transform="matrix(0.6666666666666666,0,0,0.6666666666666666,249.39393939393938,677.2483708202793)"><svg viewBox="0 0 396 57" data-background-color="#282634" preserveAspectRatio="xMidYMid meet" height="215" width="1500" xmlns="http://www.w3.org/2000/svg" xmlns:xlink="http://www.w3.org/1999/xlink"><g id="tight-bounds" transform="matrix(1,0,0,1,0.2400000000000091,0.4314618365866352)"><svg viewBox="0 0 395.52 56.13691898381348" height="56.13691898381348" width="395.52"><g><svg viewBox="0 0 477.8051525847285 67.81580992288012" height="56.13691898381348" width="395.52"><g transform="matrix(1,0,0,1,82.28515258472848,18.58514591154897)"><svg viewBox="0 0 395.52 30.64551809978218" height="30.64551809978218" width="395.52"><g id="textblocktransform"><svg viewBox="0 0 395.52 30.64551809978218" height="30.64551809978218" width="395.52" id="textblock"><g><svg viewBox="0 0 395.52 30.64551809978218" height="30.64551809978218" width="395.52"><g transform="matrix(1,0,0,1,0,0)"><svg width="395.52" viewBox="0.5 -36.75 484.02000000000004 37.35" height="30.64551809978218" data-palette-color="#ff4057"><g class="wordmark-text-0" data-fill-palette-color="primary" id="text-0"><path d="M32.9-1.25L28.55 0.5 24.65-9.5 8.45-9.5 4.55 0.4 0.5-1.25 14.2-35 19.4-35 32.9-1.25ZM16.55-30.3L9.95-13.5 23.1-13.5 16.55-30.3ZM41.9 0L37.4 0 37.4-26 41.75-26 41.75-21.65Q43.15-23.75 45.32-25.18 47.5-26.6 50.5-26.6L50.5-26.6Q54.9-26.6 57.07-23.95 59.25-21.3 59.25-16.95L59.25-16.95 59.25 0 54.75 0 54.75-16.45Q54.75-19.25 53.42-20.95 52.1-22.65 49.75-22.65L49.75-22.65Q47.45-22.65 45.4-21.03 43.35-19.4 41.9-17.2L41.9-17.2 41.9 0ZM77.5 0.6L77.5 0.6Q73.8 0.6 71.02-1.13 68.25-2.85 66.75-5.93 65.25-9 65.25-13L65.25-13Q65.25-16.75 66.77-19.85 68.3-22.95 71.15-24.78 74-26.6 77.84-26.6L77.84-26.6Q80.05-26.6 81.72-26.2 83.4-25.8 84.95-25.05L84.95-25.05 83.59-21.25Q82.2-21.95 80.92-22.28 79.65-22.6 78.09-22.6L78.09-22.6Q74.59-22.6 72.22-20.08 69.84-17.55 69.84-13.1L69.84-13.1Q69.84-10.4 70.84-8.2 71.84-6 73.62-4.7 75.4-3.4 77.8-3.4L77.8-3.4Q79.7-3.4 81.05-3.83 82.4-4.25 83.95-5.05L83.95-5.05 85.34-1.25Q83.8-0.4 81.87 0.1 79.95 0.6 77.5 0.6ZM95.09 0L90.59 0 90.59-26 95.09-26 95.09 0ZM92.84-30.45L92.84-30.45Q91.54-30.45 90.62-31.4 89.69-32.35 89.69-33.6L89.69-33.6Q89.69-35.05 90.54-35.9 91.39-36.75 92.84-36.75L92.84-36.75Q94.14-36.75 95.07-35.83 95.99-34.9 95.99-33.6L95.99-33.6Q95.99-32.2 95.14-31.33 94.29-30.45 92.84-30.45ZM113.49 0.6L113.49 0.6Q107.89 0.6 104.62-2.98 101.34-6.55 101.34-13L101.34-13Q101.34-16.9 102.81-19.98 104.29-23.05 106.94-24.83 109.59-26.6 113.09-26.6L113.09-26.6Q116.84-26.6 119.31-24.98 121.79-23.35 123.04-20.6 124.29-17.85 124.29-14.55L124.29-14.55Q124.29-12.8 124.14-11.15L124.14-11.15 105.94-11.15Q106.39-7.5 108.49-5.45 110.59-3.4 114.04-3.4L114.04-3.4Q116.29-3.4 118.09-3.88 119.89-4.35 121.54-5.1L121.54-5.1 122.59-1.25Q120.79-0.45 118.54 0.08 116.29 0.6 113.49 0.6ZM105.89-14.8L105.89-14.8 120.14-14.8Q120.14-18.6 118.24-20.65 116.34-22.7 112.99-22.7L112.99-22.7Q110.09-22.7 108.19-20.68 106.29-18.65 105.89-14.8ZM134.79 0L130.29 0 130.29-26 134.64-26 134.64-21.65Q136.04-23.75 138.21-25.18 140.39-26.6 143.39-26.6L143.39-26.6Q147.79-26.6 149.96-23.95 152.14-21.3 152.14-16.95L152.14-16.95 152.14 0 147.64 0 147.64-16.45Q147.64-19.25 146.31-20.95 144.99-22.65 142.64-22.65L142.64-22.65Q140.34-22.65 138.29-21.03 136.24-19.4 134.79-17.2L134.79-17.2 134.79 0ZM168.99 0.6L168.99 0.6Q165.24 0.6 163.06-1.88 160.89-4.35 160.89-8.95L160.89-8.95 160.89-21.15 156.39-21.15 156.39-25.05 160.99-25.05 161.94-33.25 165.39-33.25 165.39-25.05 172.59-25.05 172.59-21.15 165.39-21.15 165.39-8.6Q165.39-5.7 166.61-4.55 167.84-3.4 169.54-3.4L169.54-3.4Q170.79-3.4 171.91-3.8 173.04-4.2 173.99-4.75L173.99-4.75 175.24-1.15Q174.24-0.55 172.54 0.03 170.84 0.6 168.99 0.6Z" fill="#ffffff" data-fill-palette-color="primary"></path><path d="M206.69 0.6L206.69 0.6Q202.64 0.6 199.49-1.5 196.34-3.6 194.54-7.48 192.74-11.35 192.74-16.6L192.74-16.6Q192.74-22.2 194.64-26.48 196.54-30.75 200.11-33.18 203.69-35.6 208.74-35.6L208.74-35.6Q211.99-35.6 214.54-34.8 217.09-34 219.34-32.75L219.34-32.75 217.59-28.8Q215.49-29.95 213.31-30.7 211.14-31.45 208.49-31.45L208.49-31.45Q205.34-31.45 202.89-29.78 200.44-28.1 199.01-24.85 197.59-21.6 197.59-16.9L197.59-16.9Q197.59-12.7 198.89-9.73 200.19-6.75 202.49-5.15 204.79-3.55 207.79-3.55L207.79-3.55Q210.59-3.55 212.76-4.73 214.94-5.9 216.19-7.15L216.19-7.15 216.19-14.8 208.94-14.8 208.94-18.55 220.69-18.55 220.69 0 216.49 0 216.49-3.5Q214.74-1.95 212.24-0.68 209.74 0.6 206.69 0.6ZM232.44 0L227.94 0 227.94-26 232.29-26 232.29-20.35Q232.94-22 234.04-23.43 235.14-24.85 236.79-25.73 238.44-26.6 240.64-26.6L240.64-26.6Q241.39-26.6 242.14-26.53 242.89-26.45 243.39-26.3L243.39-26.3 242.04-21.65Q241.09-22.05 239.79-22.05L239.79-22.05Q237.94-22.05 236.26-21 234.59-19.95 233.51-17.75 232.44-15.55 232.44-12.15L232.44-12.15 232.44 0ZM258.28 0.6L258.28 0.6Q252.68 0.6 249.41-2.98 246.13-6.55 246.13-13L246.13-13Q246.13-16.9 247.61-19.98 249.08-23.05 251.73-24.83 254.38-26.6 257.88-26.6L257.88-26.6Q261.63-26.6 264.11-24.98 266.58-23.35 267.83-20.6 269.08-17.85 269.08-14.55L269.08-14.55Q269.08-12.8 268.93-11.15L268.93-11.15 250.73-11.15Q251.18-7.5 253.28-5.45 255.38-3.4 258.83-3.4L258.83-3.4Q261.08-3.4 262.88-3.88 264.68-4.35 266.33-5.1L266.33-5.1 267.38-1.25Q265.58-0.45 263.33 0.08 261.08 0.6 258.28 0.6ZM250.68-14.8L250.68-14.8 264.93-14.8Q264.93-18.6 263.03-20.65 261.13-22.7 257.78-22.7L257.78-22.7Q254.88-22.7 252.98-20.68 251.08-18.65 250.68-14.8ZM285.48 0.6L285.48 0.6Q279.88 0.6 276.61-2.98 273.33-6.55 273.33-13L273.33-13Q273.33-16.9 274.81-19.98 276.28-23.05 278.93-24.83 281.58-26.6 285.08-26.6L285.08-26.6Q288.83-26.6 291.31-24.98 293.78-23.35 295.03-20.6 296.28-17.85 296.28-14.55L296.28-14.55Q296.28-12.8 296.13-11.15L296.13-11.15 277.93-11.15Q278.38-7.5 280.48-5.45 282.58-3.4 286.03-3.4L286.03-3.4Q288.28-3.4 290.08-3.88 291.88-4.35 293.53-5.1L293.53-5.1 294.58-1.25Q292.78-0.45 290.53 0.08 288.28 0.6 285.48 0.6ZM277.88-14.8L277.88-14.8 292.13-14.8Q292.13-18.6 290.23-20.65 288.33-22.7 284.98-22.7L284.98-22.7Q282.08-22.7 280.18-20.68 278.28-18.65 277.88-14.8ZM312.78 0.6L312.78 0.6Q309.08 0.6 306.3-1.13 303.53-2.85 302.03-5.93 300.53-9 300.53-13L300.53-13Q300.53-16.75 302.05-19.85 303.58-22.95 306.43-24.78 309.28-26.6 313.13-26.6L313.13-26.6Q315.33-26.6 317-26.2 318.68-25.8 320.23-25.05L320.23-25.05 318.88-21.25Q317.48-21.95 316.2-22.28 314.93-22.6 313.38-22.6L313.38-22.6Q309.88-22.6 307.5-20.08 305.13-17.55 305.13-13.1L305.13-13.1Q305.13-10.4 306.13-8.2 307.13-6 308.9-4.7 310.68-3.4 313.08-3.4L313.08-3.4Q314.98-3.4 316.33-3.83 317.68-4.25 319.23-5.05L319.23-5.05 320.63-1.25Q319.08-0.4 317.15 0.1 315.23 0.6 312.78 0.6ZM336.28 0.6L336.28 0.6Q330.68 0.6 327.4-2.98 324.13-6.55 324.13-13L324.13-13Q324.13-16.9 325.6-19.98 327.08-23.05 329.73-24.83 332.38-26.6 335.88-26.6L335.88-26.6Q339.63-26.6 342.1-24.98 344.58-23.35 345.83-20.6 347.08-17.85 347.08-14.55L347.08-14.55Q347.08-12.8 346.93-11.15L346.93-11.15 328.73-11.15Q329.18-7.5 331.28-5.45 333.38-3.4 336.83-3.4L336.83-3.4Q339.08-3.4 340.88-3.88 342.68-4.35 344.33-5.1L344.33-5.1 345.38-1.25Q343.58-0.45 341.33 0.08 339.08 0.6 336.28 0.6ZM328.68-14.8L328.68-14.8 342.93-14.8Q342.93-18.6 341.03-20.65 339.13-22.7 335.78-22.7L335.78-22.7Q332.88-22.7 330.98-20.68 329.08-18.65 328.68-14.8Z" fill="#ffffff" data-fill-palette-color="secondary"></path><path d="M371.33 0L366.58 0 366.58-35 387.33-35 387.33-30.9 371.33-30.9 371.33-20.2 384.68-20.2 384.68-16.3 371.33-16.3 371.33 0ZM402.78 0.6L402.78 0.6Q399.53 0.6 396.88-1.05 394.23-2.7 392.65-5.73 391.08-8.75 391.08-12.85L391.08-12.85Q391.08-16.75 392.65-19.85 394.23-22.95 397-24.78 399.78-26.6 403.38-26.6L403.38-26.6Q405.63-26.6 407.45-25.83 409.28-25.05 410.63-23.9L410.63-23.9 410.63-26 414.73-26 414.73-6.3Q414.73-4.4 415.65-3.83 416.58-3.25 417.67-3.25L417.67-3.25 416.73 0.25Q411.92 0.25 410.93-3.65L410.93-3.65Q409.78-2.05 407.8-0.73 405.83 0.6 402.78 0.6ZM403.78-3.4L403.78-3.4Q405.68-3.4 407.38-4.33 409.08-5.25 410.23-6.65L410.23-6.65 410.23-20.6Q408.88-21.55 407.25-22.13 405.63-22.7 403.83-22.7L403.83-22.7Q401.43-22.7 399.6-21.48 397.78-20.25 396.73-18.07 395.68-15.9 395.68-13L395.68-13Q395.68-10.2 396.73-8.03 397.78-5.85 399.63-4.63 401.48-3.4 403.78-3.4ZM434.17 0.6L434.17 0.6Q430.47 0.6 427.7-1.13 424.92-2.85 423.42-5.93 421.92-9 421.92-13L421.92-13Q421.92-16.75 423.45-19.85 424.97-22.95 427.82-24.78 430.67-26.6 434.52-26.6L434.52-26.6Q436.72-26.6 438.4-26.2 440.07-25.8 441.62-25.05L441.62-25.05 440.27-21.25Q438.87-21.95 437.6-22.28 436.32-22.6 434.77-22.6L434.77-22.6Q431.27-22.6 428.9-20.08 426.52-17.55 426.52-13.1L426.52-13.1Q426.52-10.4 427.52-8.2 428.52-6 430.3-4.7 432.07-3.4 434.47-3.4L434.47-3.4Q436.37-3.4 437.72-3.83 439.07-4.25 440.62-5.05L440.62-5.05 442.02-1.25Q440.47-0.4 438.55 0.1 436.62 0.6 434.17 0.6ZM456.37 0.6L456.37 0.6Q452.62 0.6 450.44-1.88 448.27-4.35 448.27-8.95L448.27-8.95 448.27-21.15 443.77-21.15 443.77-25.05 448.37-25.05 449.32-33.25 452.77-33.25 452.77-25.05 459.97-25.05 459.97-21.15 452.77-21.15 452.77-8.6Q452.77-5.7 453.99-4.55 455.22-3.4 456.92-3.4L456.92-3.4Q458.17-3.4 459.3-3.8 460.42-4.2 461.37-4.75L461.37-4.75 462.62-1.15Q461.62-0.55 459.92 0.03 458.22 0.6 456.37 0.6ZM474.12 0.6L474.12 0.6Q471.17 0.6 468.79-0.15 466.42-0.9 464.87-2.1L464.87-2.1 466.77-5.85Q468.07-4.75 470.04-4.03 472.02-3.3 474.27-3.3L474.27-3.3Q477.07-3.3 478.49-4.23 479.92-5.15 479.92-6.6L479.92-6.6Q479.92-7.65 479.39-8.45 478.87-9.25 477.47-10.03 476.07-10.8 473.42-11.7L473.42-11.7Q469.77-12.95 467.94-14.68 466.12-16.4 466.12-19.45L466.12-19.45Q466.12-22.45 468.74-24.53 471.37-26.6 476.02-26.6L476.02-26.6Q478.52-26.6 480.47-26.08 482.42-25.55 483.97-24.75L483.97-24.75 482.72-21.05Q481.37-21.85 479.64-22.35 477.92-22.85 475.82-22.85L475.82-22.85Q473.22-22.85 471.87-21.8 470.52-20.75 470.52-19.5L470.52-19.5Q470.52-18.3 471.57-17.45 472.62-16.6 475.67-15.6L475.67-15.6Q480.62-13.95 482.57-11.95 484.52-9.95 484.52-6.95L484.52-6.95Q484.52-3.45 481.69-1.43 478.87 0.6 474.12 0.6Z" fill="#ffffff" data-fill-palette-color="primary"></path></g></svg></g></svg></g></svg></g></svg></g><g><svg viewBox="0 0 67.81580992288012 67.81580992288012" height="67.81580992288012" width="67.81580992288012"><g><svg></svg></g><g id="icon-0"><svg viewBox="0 0 67.81580992288012 67.81580992288012" height="67.81580992288012" width="67.81580992288012"><g><path d="M0 33.908c0-18.727 15.181-33.908 33.908-33.908 18.727 0 33.908 15.181 33.908 33.908 0 18.727-15.181 33.908-33.908 33.908-18.727 0-33.908-15.181-33.908-33.908zM33.908 65.052c17.201 0 31.144-13.944 31.144-31.144 0-17.201-13.944-31.144-31.144-31.144-17.201 0-31.144 13.944-31.144 31.144 0 17.201 13.944 31.144 31.144 31.144z" data-fill-palette-color="accent" fill="#ffffff" stroke="transparent"></path></g><g transform="matrix(1,0,0,1,20.511033908194417,20.527540767170738)"><svg viewBox="0 0 26.793742106491287 26.760728388538645" height="26.760728388538645" width="26.793742106491287"><g><svg xmlns="http://www.w3.org/2000/svg" viewBox="4 4.069 56 55.931" x="0" y="0" height="26.760728388538645" width="26.793742106491287" class="icon-dxe-0" data-fill-palette-color="accent" id="dxe-0"><g fill="#dcdcdc" data-fill-palette-color="accent"><rect x="50" y="20" width="6" height="3" fill="#ffffff" data-fill-palette-color="accent"></rect><rect x="50" y="50" width="6" height="2" fill="#ffffff" data-fill-palette-color="accent"></rect><path d="M48 52V49A1 1 0 0 1 49 48V25A1 1 0 0 1 48 24V20H37V24A1 1 0 0 1 36 25V48A1 1 0 0 1 37 49V52Z" fill="#ffffff" data-fill-palette-color="accent"></path><rect x="29" y="50" width="6" height="2" fill="#ffffff" data-fill-palette-color="accent"></rect><path d="M31.646 6.065A1 1 0 0 1 32.355 6.065L50.637 13H55.544L32 4.069 8.456 13H13.363Z" fill="#ffffff" data-fill-palette-color="accent"></path><polygon points="28 18 36 18 49 18 57 18 57 15 50.454 15 13.546 15 7 15 7 18 15 18 28 18" fill="#ffffff" data-fill-palette-color="accent"></polygon><polygon points="19.002 13 44.998 13 32 8.069 19.002 13" fill="#ffffff" data-fill-palette-color="accent"></polygon><rect x="51" y="25" width="4" height="23" fill="#ffffff" data-fill-palette-color="accent"></rect><polygon points="58 54 57 54 49 54 36 54 28 54 15 54 7 54 6 54 6 56 58 56 58 54" fill="#ffffff" data-fill-palette-color="accent"></polygon><rect x="8" y="20" width="6" height="3" fill="#ffffff" data-fill-palette-color="accent"></rect><rect x="9" y="25" width="4" height="23" fill="#ffffff" data-fill-palette-color="accent"></rect><polygon points="59 58 5 58 4 58 4 60 60 60 60 58 59 58" fill="#ffffff" data-fill-palette-color="accent"></polygon><rect x="8" y="50" width="6" height="2" fill="#ffffff" data-fill-palette-color="accent"></rect><rect x="29" y="20" width="6" height="3" fill="#ffffff" data-fill-palette-color="accent"></rect><path d="M27 52V49A1 1 0 0 1 28 48V25A1 1 0 0 1 27 24V20H16V24A1 1 0 0 1 15 25V48A1 1 0 0 1 16 49V52Z" fill="#ffffff" data-fill-palette-color="accent"></path><rect x="30" y="25" width="4" height="23" fill="#ffffff" data-fill-palette-color="accent"></rect></g></svg></g></svg></g></svg></g></svg></g></svg></g><defs></defs></svg><rect width="395.52" height="56.13691898381348" fill="none" stroke="none" visibility="hidden"></rect></g></svg></g></svg>